<svg width="828" height="189" viewBox="0 0 828 189" fill="none" xmlns="http://www.w3.org/2000/svg">
<g clip-path="url(#clip0_4_19)">
<rect width="828" height="189" fill="white"/>
<mask id="mask0_4_19" style="mask-type:luminance" maskUnits="userSpaceOnUse" x="0" y="0" width="828" height="189">
<path d="M828 0H0V189H828V0Z" fill="white"/>
</mask>
<g mask="url(#mask0_4_19)">
<path d="M828 0H0V189H828V0Z" fill="white"/>
<path d="M2.81718e-06 43.5675C4.9896e-06 31.3252 13.5544 23.7633 24.2087 30.062L64.4017 53.8241C74.0309 59.5167 79.9228 69.7703 79.9228 80.835V108.165C79.9228 119.23 74.0309 129.484 64.4017 135.176L24.2084 158.938C13.5544 165.236 -1.7431e-05 157.675 -1.52588e-05 145.432L2.81718e-06 43.5675Z" fill="#FA776C"/>
<path d="M166.007 -3.00917e-06C174.473 -1.23652e-06 178.788 10.0201 172.903 16.0179L151.688 37.6432C145.664 43.7829 137.368 47.25 128.702 47.25H88.7778C82.9835 47.25 77.2982 45.6983 72.3298 42.7609L29.6912 17.5532C21.3502 12.6221 24.8985 -3.25541e-05 34.6255 -3.05176e-05L166.007 -3.00917e-06Z" fill="#624CF5"/>
<path d="M166.007 189C174.473 189 178.788 178.979 172.903 172.983L151.688 151.356C145.664 145.217 137.368 141.75 128.702 141.75H88.7778C82.9835 141.75 77.2982 143.302 72.3298 146.238L29.6912 171.447C21.3502 176.378 24.8985 189 34.6255 189H166.007Z" fill="#624CF5"/>
<path d="M137.467 94.5C137.467 81.4522 126.733 70.875 113.49 70.875C100.248 70.875 89.5135 81.4522 89.5135 94.5C89.5135 107.548 100.248 118.125 113.49 118.125C126.733 118.125 137.467 107.548 137.467 94.5Z" fill="#FA776C"/>
</g>
<path d="M245.818 79.1818L221.409 149H199.591L175.182 79.1818H195.636L210.136 129.136H210.864L225.318 79.1818H245.818ZM285.295 150.364C278.114 150.364 271.932 148.909 266.75 146C261.598 143.061 257.629 138.909 254.841 133.545C252.053 128.152 250.659 121.773 250.659 114.409C250.659 107.227 252.053 100.924 254.841 95.5C257.629 90.0758 261.553 85.8485 266.614 82.8182C271.705 79.7879 277.674 78.2727 284.523 78.2727C289.129 78.2727 293.417 79.0152 297.386 80.5C301.386 81.9545 304.871 84.1515 307.841 87.0909C310.841 90.0303 313.174 93.7273 314.841 98.1818C316.508 102.606 317.341 107.788 317.341 113.727V119.045H258.386V107.045H299.114C299.114 104.258 298.508 101.788 297.295 99.6364C296.083 97.4848 294.402 95.803 292.25 94.5909C290.129 93.3485 287.659 92.7273 284.841 92.7273C281.902 92.7273 279.295 93.4091 277.023 94.7727C274.78 96.1061 273.023 97.9091 271.75 100.182C270.477 102.424 269.826 104.924 269.795 107.682V119.091C269.795 122.545 270.432 125.53 271.705 128.045C273.008 130.561 274.841 132.5 277.205 133.864C279.568 135.227 282.371 135.909 285.614 135.909C287.765 135.909 289.735 135.606 291.523 135C293.311 134.394 294.841 133.485 296.114 132.273C297.386 131.061 298.356 129.576 299.023 127.818L316.932 129C316.023 133.303 314.159 137.061 311.341 140.273C308.553 143.455 304.947 145.939 300.523 147.727C296.129 149.485 291.053 150.364 285.295 150.364ZM349.341 108.636V149H329.977V79.1818H348.432V91.5H349.25C350.795 87.4394 353.386 84.2273 357.023 81.8636C360.659 79.4697 365.068 78.2727 370.25 78.2727C375.098 78.2727 379.326 79.3333 382.932 81.4545C386.538 83.5758 389.341 86.6061 391.341 90.5455C393.341 94.4545 394.341 99.1212 394.341 104.545V149H374.977V108C375.008 103.727 373.917 100.394 371.705 98C369.492 95.5758 366.447 94.3636 362.568 94.3636C359.962 94.3636 357.659 94.9242 355.659 96.0455C353.689 97.1667 352.144 98.803 351.023 100.955C349.932 103.076 349.371 105.636 349.341 108.636ZM446.739 79.1818V93.7273H404.693V79.1818H446.739ZM414.239 62.4545H433.602V127.545C433.602 129.333 433.875 130.727 434.42 131.727C434.966 132.697 435.723 133.379 436.693 133.773C437.693 134.167 438.845 134.364 440.148 134.364C441.057 134.364 441.966 134.288 442.875 134.136C443.784 133.955 444.481 133.818 444.966 133.727L448.011 148.136C447.042 148.439 445.678 148.788 443.92 149.182C442.163 149.606 440.027 149.864 437.511 149.955C432.845 150.136 428.754 149.515 425.239 148.091C421.754 146.667 419.042 144.455 417.102 141.455C415.163 138.455 414.208 134.667 414.239 130.091V62.4545Z" fill="#FA776C"/>
<path d="M477.239 126.045V133.727H456.011V126.045H477.239Z" fill="black"/>
<path d="M489.716 149V55.9091H552.443V72.1364H509.398V94.3182H549.216V110.545H509.398V132.773H552.625V149H489.716ZM587.636 150.318C583.182 150.318 579.212 149.545 575.727 148C572.242 146.424 569.485 144.106 567.455 141.045C565.455 137.955 564.455 134.106 564.455 129.5C564.455 125.621 565.167 122.364 566.591 119.727C568.015 117.091 569.955 114.97 572.409 113.364C574.864 111.758 577.652 110.545 580.773 109.727C583.924 108.909 587.227 108.333 590.682 108C594.742 107.576 598.015 107.182 600.5 106.818C602.985 106.424 604.788 105.848 605.909 105.091C607.03 104.333 607.591 103.212 607.591 101.727V101.455C607.591 98.5758 606.682 96.3485 604.864 94.7727C603.076 93.197 600.53 92.4091 597.227 92.4091C593.742 92.4091 590.97 93.1818 588.909 94.7273C586.848 96.2424 585.485 98.1515 584.818 100.455L566.909 99C567.818 94.7576 569.606 91.0909 572.273 88C574.939 84.8788 578.379 82.4848 582.591 80.8182C586.833 79.1212 591.742 78.2727 597.318 78.2727C601.197 78.2727 604.909 78.7273 608.455 79.6364C612.03 80.5455 615.197 81.9545 617.955 83.8636C620.742 85.7727 622.939 88.2273 624.545 91.2273C626.152 94.197 626.955 97.7576 626.955 101.909V149H608.591V139.318H608.045C606.924 141.5 605.424 143.424 603.545 145.091C601.667 146.727 599.409 148.015 596.773 148.955C594.136 149.864 591.091 150.318 587.636 150.318ZM593.182 136.955C596.03 136.955 598.545 136.394 600.727 135.273C602.909 134.121 604.621 132.576 605.864 130.636C607.106 128.697 607.727 126.5 607.727 124.045V116.636C607.121 117.03 606.288 117.394 605.227 117.727C604.197 118.03 603.03 118.318 601.727 118.591C600.424 118.833 599.121 119.061 597.818 119.273C596.515 119.455 595.333 119.621 594.273 119.773C592 120.106 590.015 120.636 588.318 121.364C586.621 122.091 585.303 123.076 584.364 124.318C583.424 125.53 582.955 127.045 582.955 128.864C582.955 131.5 583.909 133.515 585.818 134.909C587.758 136.273 590.212 136.955 593.182 136.955ZM700.068 99.0909L682.341 100.182C682.038 98.6667 681.386 97.303 680.386 96.0909C679.386 94.8485 678.068 93.8636 676.432 93.1364C674.826 92.3788 672.902 92 670.659 92C667.659 92 665.129 92.6364 663.068 93.9091C661.008 95.1515 659.977 96.8182 659.977 98.9091C659.977 100.576 660.644 101.985 661.977 103.136C663.311 104.288 665.598 105.212 668.841 105.909L681.477 108.455C688.265 109.848 693.326 112.091 696.659 115.182C699.992 118.273 701.659 122.333 701.659 127.364C701.659 131.939 700.311 135.955 697.614 139.409C694.947 142.864 691.28 145.561 686.614 147.5C681.977 149.409 676.629 150.364 670.568 150.364C661.326 150.364 653.962 148.439 648.477 144.591C643.023 140.712 639.826 135.439 638.886 128.773L657.932 127.773C658.508 130.591 659.902 132.742 662.114 134.227C664.326 135.682 667.159 136.409 670.614 136.409C674.008 136.409 676.735 135.758 678.795 134.455C680.886 133.121 681.947 131.409 681.977 129.318C681.947 127.561 681.205 126.121 679.75 125C678.295 123.848 676.053 122.97 673.023 122.364L660.932 119.955C654.114 118.591 649.038 116.227 645.705 112.864C642.402 109.5 640.75 105.212 640.75 100C640.75 95.5151 641.962 91.6515 644.386 88.4091C646.841 85.1667 650.28 82.6667 654.705 80.9091C659.159 79.1515 664.371 78.2727 670.341 78.2727C679.159 78.2727 686.098 80.1364 691.159 83.8636C696.25 87.5909 699.22 92.6667 700.068 99.0909ZM745.67 150.364C738.489 150.364 732.307 148.909 727.125 146C721.973 143.061 718.004 138.909 715.216 133.545C712.428 128.152 711.034 121.773 711.034 114.409C711.034 107.227 712.428 100.924 715.216 95.5C718.004 90.0758 721.928 85.8485 726.989 82.8182C732.08 79.7879 738.049 78.2727 744.898 78.2727C749.504 78.2727 753.792 79.0152 757.761 80.5C761.761 81.9545 765.246 84.1515 768.216 87.0909C771.216 90.0303 773.549 93.7273 775.216 98.1818C776.883 102.606 777.716 107.788 777.716 113.727V119.045H718.761V107.045H759.489C759.489 104.258 758.883 101.788 757.67 99.6364C756.458 97.4848 754.777 95.803 752.625 94.5909C750.504 93.3485 748.034 92.7273 745.216 92.7273C742.277 92.7273 739.67 93.4091 737.398 94.7727C735.155 96.1061 733.398 97.9091 732.125 100.182C730.852 102.424 730.201 104.924 730.17 107.682V119.091C730.17 122.545 730.807 125.53 732.08 128.045C733.383 130.561 735.216 132.5 737.58 133.864C739.943 135.227 742.746 135.909 745.989 135.909C748.14 135.909 750.11 135.606 751.898 135C753.686 134.394 755.216 133.485 756.489 132.273C757.761 131.061 758.731 129.576 759.398 127.818L777.307 129C776.398 133.303 774.534 137.061 771.716 140.273C768.928 143.455 765.322 145.939 760.898 147.727C756.504 149.485 751.428 150.364 745.67 150.364Z" fill="#624CF5"/>
</g>
<defs>
<clipPath id="clip0_4_19">
<rect width="828" height="189" fill="white"/>
</clipPath>
</defs>
</svg>
